# xmcd
#
# Track frame offsets:
#	150
#	17991
#	33815
#	50144
#	66546
#	87935
#	101304
#	118033
#	135507
#	154106
#	170345
#	186771
#	203485
#	220272
#	239501
#	259480
#	275254
#	289365
#	309512
# Disc length: 4396 seconds
# Revision: 1
# Processed by: cddbd v1.5.1PL0 Copyright (c) Steve Scherf et al.
#
# Submitted via: libkcddb 0.10
#
DISCID=19112a13
DTITLE=Shania Twain - Come On Over
DYEAR=1900
DGENRE=
TTITLE0=Man I Feel Like A Woman
TTITLE1=I'm Holding On To Love
TTITLE2=Love Gets Me Every Time
TTITLE3=Don't Be Stupid
TTITLE4=From This Moment On
TTITLE5=Come On Over
TTITLE6=When
TTITLE7=What Ever you Do
TTITLE8=If You wanna Touch her Ask
TTITLE9=You're still The One
TTITLE10=Honey I'm HOME
TTITLE11=That don't Impress Me Much
TTITLE12=Blak Eye's, Blue tears
TTITLE13=I Won't Leave You Lonely
TTITLE14=Rock This country
TTITLE15=You've Got a Way
TTITLE16=No One Keeds To Know
TTITLE17=Whose Bed Has Your Boots Been Under
TTITLE18=If You're Not In it for love
EXTD=
EXTT0=
EXTT1=
EXTT2=
EXTT3=
EXTT4=
EXTT5=
EXTT6=
EXTT7=
EXTT8=
EXTT9=
EXTT10=
EXTT11=
EXTT12=
EXTT13=
EXTT14=
EXTT15=
EXTT16=
EXTT17=
EXTT18=
PLAYORDER=
